<mxfile host="app.diagrams.net" modified="2020-10-25T23:45:15.395Z" agent="5.0 (Windows NT 10.0; Win64; x64) AppleWebKit/537.36 (KHTML, like Gecko) Chrome/86.0.4240.111 Safari/537.36" etag="YLTDQhEbfuDsdJbBpkJL" version="13.8.1" type="github">
  <diagram id="UPOV53XJPt46uaujTBaV" name="Page-1">
    <mxGraphModel dx="1110" dy="570" grid="1" gridSize="10" guides="1" tooltips="1" connect="1" arrows="1" fold="1" page="1" pageScale="1" pageWidth="827" pageHeight="1169" math="0" shadow="0">
      <root>
        <mxCell id="0" />
        <mxCell id="1" parent="0" />
        <mxCell id="iRIm101KUKBQ2ktEbunz-2" style="edgeStyle=orthogonalEdgeStyle;rounded=0;orthogonalLoop=1;jettySize=auto;html=1;entryX=0;entryY=0.5;entryDx=0;entryDy=0;" parent="1" source="X53S201gnLeGKAmgcMss-23" target="2w_KGNxN2NJNlrG-rZb2-15" edge="1">
          <mxGeometry relative="1" as="geometry">
            <Array as="points">
              <mxPoint x="360" y="335" />
            </Array>
          </mxGeometry>
        </mxCell>
        <mxCell id="X53S201gnLeGKAmgcMss-5" value="@Entity Transaction" style="swimlane;fontStyle=1;align=center;verticalAlign=top;childLayout=stackLayout;horizontal=1;startSize=26;horizontalStack=0;resizeParent=1;resizeParentMax=0;resizeLast=0;collapsible=1;marginBottom=0;" parent="1" vertex="1">
          <mxGeometry x="780" y="30" width="210" height="216" as="geometry" />
        </mxCell>
        <mxCell id="X53S201gnLeGKAmgcMss-6" value="- id: Long&#xa;" style="text;strokeColor=none;fillColor=none;align=left;verticalAlign=top;spacingLeft=4;spacingRight=4;overflow=hidden;rotatable=0;points=[[0,0.5],[1,0.5]];portConstraint=eastwest;" parent="X53S201gnLeGKAmgcMss-5" vertex="1">
          <mxGeometry y="26" width="210" height="26" as="geometry" />
        </mxCell>
        <mxCell id="2w_KGNxN2NJNlrG-rZb2-1" value="- name : String&#xa;" style="text;strokeColor=none;fillColor=none;align=left;verticalAlign=top;spacingLeft=4;spacingRight=4;overflow=hidden;rotatable=0;points=[[0,0.5],[1,0.5]];portConstraint=eastwest;" parent="X53S201gnLeGKAmgcMss-5" vertex="1">
          <mxGeometry y="52" width="210" height="26" as="geometry" />
        </mxCell>
        <mxCell id="91KgXIyakMXPJoI8tEhy-16" value="- amount : int" style="text;strokeColor=none;fillColor=none;align=left;verticalAlign=top;spacingLeft=4;spacingRight=4;overflow=hidden;rotatable=0;points=[[0,0.5],[1,0.5]];portConstraint=eastwest;" vertex="1" parent="X53S201gnLeGKAmgcMss-5">
          <mxGeometry y="78" width="210" height="26" as="geometry" />
        </mxCell>
        <mxCell id="91KgXIyakMXPJoI8tEhy-17" value="- date : Date " style="text;strokeColor=none;fillColor=none;align=left;verticalAlign=top;spacingLeft=4;spacingRight=4;overflow=hidden;rotatable=0;points=[[0,0.5],[1,0.5]];portConstraint=eastwest;" vertex="1" parent="X53S201gnLeGKAmgcMss-5">
          <mxGeometry y="104" width="210" height="26" as="geometry" />
        </mxCell>
        <mxCell id="91KgXIyakMXPJoI8tEhy-18" value="- savingTypeID : Long" style="text;strokeColor=none;fillColor=none;align=left;verticalAlign=top;spacingLeft=4;spacingRight=4;overflow=hidden;rotatable=0;points=[[0,0.5],[1,0.5]];portConstraint=eastwest;" vertex="1" parent="X53S201gnLeGKAmgcMss-5">
          <mxGeometry y="130" width="210" height="26" as="geometry" />
        </mxCell>
        <mxCell id="X53S201gnLeGKAmgcMss-7" value="" style="line;strokeWidth=1;fillColor=none;align=left;verticalAlign=middle;spacingTop=-1;spacingLeft=3;spacingRight=3;rotatable=0;labelPosition=right;points=[];portConstraint=eastwest;" parent="X53S201gnLeGKAmgcMss-5" vertex="1">
          <mxGeometry y="156" width="210" height="8" as="geometry" />
        </mxCell>
        <mxCell id="X53S201gnLeGKAmgcMss-8" value="+ transaction(String): Transaction" style="text;strokeColor=none;fillColor=none;align=left;verticalAlign=top;spacingLeft=4;spacingRight=4;overflow=hidden;rotatable=0;points=[[0,0.5],[1,0.5]];portConstraint=eastwest;" parent="X53S201gnLeGKAmgcMss-5" vertex="1">
          <mxGeometry y="164" width="210" height="26" as="geometry" />
        </mxCell>
        <mxCell id="2w_KGNxN2NJNlrG-rZb2-2" value="[Getters &amp; Setters]" style="text;strokeColor=none;fillColor=none;align=left;verticalAlign=top;spacingLeft=4;spacingRight=4;overflow=hidden;rotatable=0;points=[[0,0.5],[1,0.5]];portConstraint=eastwest;" parent="X53S201gnLeGKAmgcMss-5" vertex="1">
          <mxGeometry y="190" width="210" height="26" as="geometry" />
        </mxCell>
        <mxCell id="91KgXIyakMXPJoI8tEhy-58" value="&lt;&lt;Interface&gt;&gt;TransactionRepo" style="swimlane;fontStyle=1;align=center;verticalAlign=top;childLayout=stackLayout;horizontal=1;startSize=26;horizontalStack=0;resizeParent=1;resizeParentMax=0;resizeLast=0;collapsible=1;marginBottom=0;" vertex="1" parent="1">
          <mxGeometry x="1241" y="20" width="286" height="216" as="geometry" />
        </mxCell>
        <mxCell id="91KgXIyakMXPJoI8tEhy-59" value="" style="line;strokeWidth=1;fillColor=none;align=left;verticalAlign=middle;spacingTop=-1;spacingLeft=3;spacingRight=3;rotatable=0;labelPosition=right;points=[];portConstraint=eastwest;" vertex="1" parent="91KgXIyakMXPJoI8tEhy-58">
          <mxGeometry y="26" width="286" height="8" as="geometry" />
        </mxCell>
        <mxCell id="91KgXIyakMXPJoI8tEhy-60" value="+save(Transaction) : Transaction" style="text;strokeColor=none;fillColor=none;align=left;verticalAlign=top;spacingLeft=4;spacingRight=4;overflow=hidden;rotatable=0;points=[[0,0.5],[1,0.5]];portConstraint=eastwest;" vertex="1" parent="91KgXIyakMXPJoI8tEhy-58">
          <mxGeometry y="34" width="286" height="26" as="geometry" />
        </mxCell>
        <mxCell id="91KgXIyakMXPJoI8tEhy-61" value="+delete(Transaction) : void" style="text;strokeColor=none;fillColor=none;align=left;verticalAlign=top;spacingLeft=4;spacingRight=4;overflow=hidden;rotatable=0;points=[[0,0.5],[1,0.5]];portConstraint=eastwest;" vertex="1" parent="91KgXIyakMXPJoI8tEhy-58">
          <mxGeometry y="60" width="286" height="26" as="geometry" />
        </mxCell>
        <mxCell id="91KgXIyakMXPJoI8tEhy-62" value="+findAll() : List&lt;Transaction&gt;" style="text;strokeColor=none;fillColor=none;align=left;verticalAlign=top;spacingLeft=4;spacingRight=4;overflow=hidden;rotatable=0;points=[[0,0.5],[1,0.5]];portConstraint=eastwest;" vertex="1" parent="91KgXIyakMXPJoI8tEhy-58">
          <mxGeometry y="86" width="286" height="26" as="geometry" />
        </mxCell>
        <mxCell id="91KgXIyakMXPJoI8tEhy-63" value="+findByName(String) : List&lt;Transaction&gt;" style="text;strokeColor=none;fillColor=none;align=left;verticalAlign=top;spacingLeft=4;spacingRight=4;overflow=hidden;rotatable=0;points=[[0,0.5],[1,0.5]];portConstraint=eastwest;" vertex="1" parent="91KgXIyakMXPJoI8tEhy-58">
          <mxGeometry y="112" width="286" height="26" as="geometry" />
        </mxCell>
        <mxCell id="91KgXIyakMXPJoI8tEhy-64" value="+findById(Long) : Optional&lt;Transaction&gt;" style="text;strokeColor=none;fillColor=none;align=left;verticalAlign=top;spacingLeft=4;spacingRight=4;overflow=hidden;rotatable=0;points=[[0,0.5],[1,0.5]];portConstraint=eastwest;" vertex="1" parent="91KgXIyakMXPJoI8tEhy-58">
          <mxGeometry y="138" width="286" height="26" as="geometry" />
        </mxCell>
        <mxCell id="91KgXIyakMXPJoI8tEhy-65" value="+findBySavingTypeID(Long) : List&lt;Transaction&gt;" style="text;strokeColor=none;fillColor=none;align=left;verticalAlign=top;spacingLeft=4;spacingRight=4;overflow=hidden;rotatable=0;points=[[0,0.5],[1,0.5]];portConstraint=eastwest;" vertex="1" parent="91KgXIyakMXPJoI8tEhy-58">
          <mxGeometry y="164" width="286" height="26" as="geometry" />
        </mxCell>
        <mxCell id="91KgXIyakMXPJoI8tEhy-66" value="+findByDate(Date) : List&lt;Transaction&gt;" style="text;strokeColor=none;fillColor=none;align=left;verticalAlign=top;spacingLeft=4;spacingRight=4;overflow=hidden;rotatable=0;points=[[0,0.5],[1,0.5]];portConstraint=eastwest;" vertex="1" parent="91KgXIyakMXPJoI8tEhy-58">
          <mxGeometry y="190" width="286" height="26" as="geometry" />
        </mxCell>
        <mxCell id="X53S201gnLeGKAmgcMss-23" value=" @Controller SavingTypeController" style="swimlane;fontStyle=1;align=center;verticalAlign=top;childLayout=stackLayout;horizontal=1;startSize=26;horizontalStack=0;resizeParent=1;resizeParentMax=0;resizeLast=0;collapsible=1;marginBottom=0;" parent="1" vertex="1">
          <mxGeometry x="25" y="670" width="405" height="190" as="geometry" />
        </mxCell>
        <mxCell id="X53S201gnLeGKAmgcMss-24" value="- savingTypeService: SavingTypeService" style="text;strokeColor=none;fillColor=none;align=left;verticalAlign=top;spacingLeft=4;spacingRight=4;overflow=hidden;rotatable=0;points=[[0,0.5],[1,0.5]];portConstraint=eastwest;" parent="X53S201gnLeGKAmgcMss-23" vertex="1">
          <mxGeometry y="26" width="405" height="26" as="geometry" />
        </mxCell>
        <mxCell id="X53S201gnLeGKAmgcMss-25" value="" style="line;strokeWidth=1;fillColor=none;align=left;verticalAlign=middle;spacingTop=-1;spacingLeft=3;spacingRight=3;rotatable=0;labelPosition=right;points=[];portConstraint=eastwest;" parent="X53S201gnLeGKAmgcMss-23" vertex="1">
          <mxGeometry y="52" width="405" height="8" as="geometry" />
        </mxCell>
        <mxCell id="X53S201gnLeGKAmgcMss-26" value="+ SavingTypeController(SavingTypeService): SavingTypeController" style="text;strokeColor=none;fillColor=none;align=left;verticalAlign=top;spacingLeft=4;spacingRight=4;overflow=hidden;rotatable=0;points=[[0,0.5],[1,0.5]];portConstraint=eastwest;" parent="X53S201gnLeGKAmgcMss-23" vertex="1">
          <mxGeometry y="60" width="405" height="26" as="geometry" />
        </mxCell>
        <mxCell id="2w_KGNxN2NJNlrG-rZb2-46" value="+ SavingType(Model): String" style="text;strokeColor=none;fillColor=none;align=left;verticalAlign=top;spacingLeft=4;spacingRight=4;overflow=hidden;rotatable=0;points=[[0,0.5],[1,0.5]];portConstraint=eastwest;" parent="X53S201gnLeGKAmgcMss-23" vertex="1">
          <mxGeometry y="86" width="405" height="26" as="geometry" />
        </mxCell>
        <mxCell id="2w_KGNxN2NJNlrG-rZb2-47" value="+ addSavingType(SavingType,BindingResult, Model): String" style="text;strokeColor=none;fillColor=none;align=left;verticalAlign=top;spacingLeft=4;spacingRight=4;overflow=hidden;rotatable=0;points=[[0,0.5],[1,0.5]];portConstraint=eastwest;" parent="X53S201gnLeGKAmgcMss-23" vertex="1">
          <mxGeometry y="112" width="405" height="26" as="geometry" />
        </mxCell>
        <mxCell id="2w_KGNxN2NJNlrG-rZb2-48" value="+ addSavingTypeForm(SavingType): String" style="text;strokeColor=none;fillColor=none;align=left;verticalAlign=top;spacingLeft=4;spacingRight=4;overflow=hidden;rotatable=0;points=[[0,0.5],[1,0.5]];portConstraint=eastwest;" parent="X53S201gnLeGKAmgcMss-23" vertex="1">
          <mxGeometry y="138" width="405" height="26" as="geometry" />
        </mxCell>
        <mxCell id="2w_KGNxN2NJNlrG-rZb2-49" value="+ deleteSavingTypeForm(long,Model): String" style="text;strokeColor=none;fillColor=none;align=left;verticalAlign=top;spacingLeft=4;spacingRight=4;overflow=hidden;rotatable=0;points=[[0,0.5],[1,0.5]];portConstraint=eastwest;" parent="X53S201gnLeGKAmgcMss-23" vertex="1">
          <mxGeometry y="164" width="405" height="26" as="geometry" />
        </mxCell>
        <mxCell id="X53S201gnLeGKAmgcMss-1" value="&lt;&lt;Interface&gt;&gt;SavingTypeRepo" style="swimlane;fontStyle=1;align=center;verticalAlign=top;childLayout=stackLayout;horizontal=1;startSize=26;horizontalStack=0;resizeParent=1;resizeParentMax=0;resizeLast=0;collapsible=1;marginBottom=0;" parent="1" vertex="1">
          <mxGeometry x="414" y="10" width="286" height="164" as="geometry" />
        </mxCell>
        <mxCell id="X53S201gnLeGKAmgcMss-3" value="" style="line;strokeWidth=1;fillColor=none;align=left;verticalAlign=middle;spacingTop=-1;spacingLeft=3;spacingRight=3;rotatable=0;labelPosition=right;points=[];portConstraint=eastwest;" parent="X53S201gnLeGKAmgcMss-1" vertex="1">
          <mxGeometry y="26" width="286" height="8" as="geometry" />
        </mxCell>
        <mxCell id="X53S201gnLeGKAmgcMss-4" value="+save(SavingType) : SavingType" style="text;strokeColor=none;fillColor=none;align=left;verticalAlign=top;spacingLeft=4;spacingRight=4;overflow=hidden;rotatable=0;points=[[0,0.5],[1,0.5]];portConstraint=eastwest;" parent="X53S201gnLeGKAmgcMss-1" vertex="1">
          <mxGeometry y="34" width="286" height="26" as="geometry" />
        </mxCell>
        <mxCell id="2w_KGNxN2NJNlrG-rZb2-6" value="+delete(SavingType) : void" style="text;strokeColor=none;fillColor=none;align=left;verticalAlign=top;spacingLeft=4;spacingRight=4;overflow=hidden;rotatable=0;points=[[0,0.5],[1,0.5]];portConstraint=eastwest;" parent="X53S201gnLeGKAmgcMss-1" vertex="1">
          <mxGeometry y="60" width="286" height="26" as="geometry" />
        </mxCell>
        <mxCell id="2w_KGNxN2NJNlrG-rZb2-7" value="+findAll() : List&lt;SavingType&gt;" style="text;strokeColor=none;fillColor=none;align=left;verticalAlign=top;spacingLeft=4;spacingRight=4;overflow=hidden;rotatable=0;points=[[0,0.5],[1,0.5]];portConstraint=eastwest;" parent="X53S201gnLeGKAmgcMss-1" vertex="1">
          <mxGeometry y="86" width="286" height="26" as="geometry" />
        </mxCell>
        <mxCell id="2w_KGNxN2NJNlrG-rZb2-8" value="+findByTitle(String) : List&lt;SavingType&gt;" style="text;strokeColor=none;fillColor=none;align=left;verticalAlign=top;spacingLeft=4;spacingRight=4;overflow=hidden;rotatable=0;points=[[0,0.5],[1,0.5]];portConstraint=eastwest;" parent="X53S201gnLeGKAmgcMss-1" vertex="1">
          <mxGeometry y="112" width="286" height="26" as="geometry" />
        </mxCell>
        <mxCell id="2w_KGNxN2NJNlrG-rZb2-9" value="+findById(Long) : Optional&lt;SavingType&gt;" style="text;strokeColor=none;fillColor=none;align=left;verticalAlign=top;spacingLeft=4;spacingRight=4;overflow=hidden;rotatable=0;points=[[0,0.5],[1,0.5]];portConstraint=eastwest;" parent="X53S201gnLeGKAmgcMss-1" vertex="1">
          <mxGeometry y="138" width="286" height="26" as="geometry" />
        </mxCell>
        <mxCell id="2w_KGNxN2NJNlrG-rZb2-41" style="edgeStyle=orthogonalEdgeStyle;rounded=0;orthogonalLoop=1;jettySize=auto;html=1;entryX=0.003;entryY=0.282;entryDx=0;entryDy=0;entryPerimeter=0;endArrow=classic;endFill=0;" parent="1" source="2w_KGNxN2NJNlrG-rZb2-20" target="2w_KGNxN2NJNlrG-rZb2-14" edge="1">
          <mxGeometry relative="1" as="geometry">
            <Array as="points">
              <mxPoint x="370" y="303" />
            </Array>
          </mxGeometry>
        </mxCell>
        <mxCell id="2w_KGNxN2NJNlrG-rZb2-42" style="edgeStyle=orthogonalEdgeStyle;rounded=0;orthogonalLoop=1;jettySize=auto;html=1;entryX=0;entryY=0.5;entryDx=0;entryDy=0;" parent="1" source="2w_KGNxN2NJNlrG-rZb2-20" target="2w_KGNxN2NJNlrG-rZb2-9" edge="1">
          <mxGeometry relative="1" as="geometry" />
        </mxCell>
        <mxCell id="2w_KGNxN2NJNlrG-rZb2-20" value="@Service SavingTypeServiceImplementation" style="swimlane;fontStyle=1;align=center;verticalAlign=top;childLayout=stackLayout;horizontal=1;startSize=26;horizontalStack=0;resizeParent=1;resizeParentMax=0;resizeLast=0;collapsible=1;marginBottom=0;" parent="1" vertex="1">
          <mxGeometry x="40" y="210" width="286" height="190" as="geometry">
            <mxRectangle x="357" y="610" width="290" height="26" as="alternateBounds" />
          </mxGeometry>
        </mxCell>
        <mxCell id="2w_KGNxN2NJNlrG-rZb2-30" value="-repo: SavingTypeRepo" style="text;strokeColor=none;fillColor=none;align=left;verticalAlign=top;spacingLeft=4;spacingRight=4;overflow=hidden;rotatable=0;points=[[0,0.5],[1,0.5]];portConstraint=eastwest;" parent="2w_KGNxN2NJNlrG-rZb2-20" vertex="1">
          <mxGeometry y="26" width="286" height="26" as="geometry" />
        </mxCell>
        <mxCell id="2w_KGNxN2NJNlrG-rZb2-21" value="" style="line;strokeWidth=1;fillColor=none;align=left;verticalAlign=middle;spacingTop=-1;spacingLeft=3;spacingRight=3;rotatable=0;labelPosition=right;points=[];portConstraint=eastwest;" parent="2w_KGNxN2NJNlrG-rZb2-20" vertex="1">
          <mxGeometry y="52" width="286" height="8" as="geometry" />
        </mxCell>
        <mxCell id="2w_KGNxN2NJNlrG-rZb2-22" value="+save(SavingType) : SavingType" style="text;strokeColor=none;fillColor=none;align=left;verticalAlign=top;spacingLeft=4;spacingRight=4;overflow=hidden;rotatable=0;points=[[0,0.5],[1,0.5]];portConstraint=eastwest;" parent="2w_KGNxN2NJNlrG-rZb2-20" vertex="1">
          <mxGeometry y="60" width="286" height="26" as="geometry" />
        </mxCell>
        <mxCell id="2w_KGNxN2NJNlrG-rZb2-23" value="+delete(SavingType) : void" style="text;strokeColor=none;fillColor=none;align=left;verticalAlign=top;spacingLeft=4;spacingRight=4;overflow=hidden;rotatable=0;points=[[0,0.5],[1,0.5]];portConstraint=eastwest;" parent="2w_KGNxN2NJNlrG-rZb2-20" vertex="1">
          <mxGeometry y="86" width="286" height="26" as="geometry" />
        </mxCell>
        <mxCell id="2w_KGNxN2NJNlrG-rZb2-24" value="+findAll() : List&lt;SavingType&gt;" style="text;strokeColor=none;fillColor=none;align=left;verticalAlign=top;spacingLeft=4;spacingRight=4;overflow=hidden;rotatable=0;points=[[0,0.5],[1,0.5]];portConstraint=eastwest;" parent="2w_KGNxN2NJNlrG-rZb2-20" vertex="1">
          <mxGeometry y="112" width="286" height="26" as="geometry" />
        </mxCell>
        <mxCell id="2w_KGNxN2NJNlrG-rZb2-25" value="+findByTitle(String) : List&lt;SavingType&gt;" style="text;strokeColor=none;fillColor=none;align=left;verticalAlign=top;spacingLeft=4;spacingRight=4;overflow=hidden;rotatable=0;points=[[0,0.5],[1,0.5]];portConstraint=eastwest;" parent="2w_KGNxN2NJNlrG-rZb2-20" vertex="1">
          <mxGeometry y="138" width="286" height="26" as="geometry" />
        </mxCell>
        <mxCell id="2w_KGNxN2NJNlrG-rZb2-26" value="+findById(Long) : Optional&lt;SavingType&gt;" style="text;strokeColor=none;fillColor=none;align=left;verticalAlign=top;spacingLeft=4;spacingRight=4;overflow=hidden;rotatable=0;points=[[0,0.5],[1,0.5]];portConstraint=eastwest;" parent="2w_KGNxN2NJNlrG-rZb2-20" vertex="1">
          <mxGeometry y="164" width="286" height="26" as="geometry" />
        </mxCell>
        <mxCell id="2w_KGNxN2NJNlrG-rZb2-10" value="&lt;&lt;Interface&gt;&gt;SavingTypeService" style="swimlane;fontStyle=1;align=center;verticalAlign=top;childLayout=stackLayout;horizontal=1;startSize=26;horizontalStack=0;resizeParent=1;resizeParentMax=0;resizeLast=0;collapsible=1;marginBottom=0;" parent="1" vertex="1">
          <mxGeometry x="414" y="210" width="286" height="164" as="geometry" />
        </mxCell>
        <mxCell id="2w_KGNxN2NJNlrG-rZb2-11" value="" style="line;strokeWidth=1;fillColor=none;align=left;verticalAlign=middle;spacingTop=-1;spacingLeft=3;spacingRight=3;rotatable=0;labelPosition=right;points=[];portConstraint=eastwest;" parent="2w_KGNxN2NJNlrG-rZb2-10" vertex="1">
          <mxGeometry y="26" width="286" height="8" as="geometry" />
        </mxCell>
        <mxCell id="2w_KGNxN2NJNlrG-rZb2-12" value="+save(SavingType) : SavingType" style="text;strokeColor=none;fillColor=none;align=left;verticalAlign=top;spacingLeft=4;spacingRight=4;overflow=hidden;rotatable=0;points=[[0,0.5],[1,0.5]];portConstraint=eastwest;" parent="2w_KGNxN2NJNlrG-rZb2-10" vertex="1">
          <mxGeometry y="34" width="286" height="26" as="geometry" />
        </mxCell>
        <mxCell id="2w_KGNxN2NJNlrG-rZb2-13" value="+delete(SavingType) : void" style="text;strokeColor=none;fillColor=none;align=left;verticalAlign=top;spacingLeft=4;spacingRight=4;overflow=hidden;rotatable=0;points=[[0,0.5],[1,0.5]];portConstraint=eastwest;" parent="2w_KGNxN2NJNlrG-rZb2-10" vertex="1">
          <mxGeometry y="60" width="286" height="26" as="geometry" />
        </mxCell>
        <mxCell id="2w_KGNxN2NJNlrG-rZb2-14" value="+findAll() : List&lt;SavingType&gt;" style="text;strokeColor=none;fillColor=none;align=left;verticalAlign=top;spacingLeft=4;spacingRight=4;overflow=hidden;rotatable=0;points=[[0,0.5],[1,0.5]];portConstraint=eastwest;" parent="2w_KGNxN2NJNlrG-rZb2-10" vertex="1">
          <mxGeometry y="86" width="286" height="26" as="geometry" />
        </mxCell>
        <mxCell id="2w_KGNxN2NJNlrG-rZb2-15" value="+findByTitle(String) : List&lt;SavingType&gt;" style="text;strokeColor=none;fillColor=none;align=left;verticalAlign=top;spacingLeft=4;spacingRight=4;overflow=hidden;rotatable=0;points=[[0,0.5],[1,0.5]];portConstraint=eastwest;" parent="2w_KGNxN2NJNlrG-rZb2-10" vertex="1">
          <mxGeometry y="112" width="286" height="26" as="geometry" />
        </mxCell>
        <mxCell id="2w_KGNxN2NJNlrG-rZb2-16" value="+findById(Long) : Optional&lt;SavingType&gt;" style="text;strokeColor=none;fillColor=none;align=left;verticalAlign=top;spacingLeft=4;spacingRight=4;overflow=hidden;rotatable=0;points=[[0,0.5],[1,0.5]];portConstraint=eastwest;" parent="2w_KGNxN2NJNlrG-rZb2-10" vertex="1">
          <mxGeometry y="138" width="286" height="26" as="geometry" />
        </mxCell>
        <mxCell id="eeIHZY7p8bbHrmFOEWPB-21" value="&lt;&lt;Interface&gt;&gt; UserRegister" style="swimlane;fontStyle=1;align=center;verticalAlign=top;childLayout=stackLayout;horizontal=1;startSize=26;horizontalStack=0;resizeParent=1;resizeParentMax=0;resizeLast=0;collapsible=1;marginBottom=0;" parent="1" vertex="1">
          <mxGeometry x="600" y="400" width="200" height="130" as="geometry" />
        </mxCell>
        <mxCell id="eeIHZY7p8bbHrmFOEWPB-22" value="+ field: type" style="text;strokeColor=none;fillColor=none;align=left;verticalAlign=top;spacingLeft=4;spacingRight=4;overflow=hidden;rotatable=0;points=[[0,0.5],[1,0.5]];portConstraint=eastwest;" parent="eeIHZY7p8bbHrmFOEWPB-21" vertex="1">
          <mxGeometry y="26" width="200" height="26" as="geometry" />
        </mxCell>
        <mxCell id="eeIHZY7p8bbHrmFOEWPB-23" value="" style="line;strokeWidth=1;fillColor=none;align=left;verticalAlign=middle;spacingTop=-1;spacingLeft=3;spacingRight=3;rotatable=0;labelPosition=right;points=[];portConstraint=eastwest;" parent="eeIHZY7p8bbHrmFOEWPB-21" vertex="1">
          <mxGeometry y="52" width="200" height="8" as="geometry" />
        </mxCell>
        <mxCell id="eeIHZY7p8bbHrmFOEWPB-24" value="+UserAdd(user): List&lt;User&gt;&#xa;+UserAuthenticate&#xa;+UserAccount&#xa;+UserAccess" style="text;strokeColor=none;fillColor=none;align=left;verticalAlign=top;spacingLeft=4;spacingRight=4;overflow=hidden;rotatable=0;points=[[0,0.5],[1,0.5]];portConstraint=eastwest;" parent="eeIHZY7p8bbHrmFOEWPB-21" vertex="1">
          <mxGeometry y="60" width="200" height="70" as="geometry" />
        </mxCell>
        <mxCell id="iRIm101KUKBQ2ktEbunz-8" style="edgeStyle=orthogonalEdgeStyle;rounded=0;orthogonalLoop=1;jettySize=auto;html=1;entryX=0.481;entryY=1.033;entryDx=0;entryDy=0;entryPerimeter=0;endArrow=block;endFill=0;strokeWidth=2;" parent="1" source="eeIHZY7p8bbHrmFOEWPB-1" target="eeIHZY7p8bbHrmFOEWPB-24" edge="1">
          <mxGeometry relative="1" as="geometry">
            <Array as="points">
              <mxPoint x="700" y="600" />
              <mxPoint x="696" y="600" />
            </Array>
          </mxGeometry>
        </mxCell>
        <mxCell id="iRIm101KUKBQ2ktEbunz-9" style="edgeStyle=orthogonalEdgeStyle;rounded=0;orthogonalLoop=1;jettySize=auto;html=1;entryX=-0.009;entryY=0.981;entryDx=0;entryDy=0;entryPerimeter=0;" parent="1" source="eeIHZY7p8bbHrmFOEWPB-1" target="iRIm101KUKBQ2ktEbunz-4" edge="1">
          <mxGeometry relative="1" as="geometry">
            <Array as="points">
              <mxPoint x="700" y="650" />
              <mxPoint x="790" y="650" />
              <mxPoint x="790" y="577" />
            </Array>
          </mxGeometry>
        </mxCell>
        <mxCell id="eeIHZY7p8bbHrmFOEWPB-1" value="@Controller UserController" style="swimlane;" parent="1" vertex="1">
          <mxGeometry x="500" y="670" width="380" height="292" as="geometry" />
        </mxCell>
        <mxCell id="eeIHZY7p8bbHrmFOEWPB-12" value="" style="edgeStyle=orthogonalEdgeStyle;rounded=0;orthogonalLoop=1;jettySize=auto;html=1;" parent="eeIHZY7p8bbHrmFOEWPB-1" source="eeIHZY7p8bbHrmFOEWPB-3" target="eeIHZY7p8bbHrmFOEWPB-8" edge="1">
          <mxGeometry relative="1" as="geometry" />
        </mxCell>
        <mxCell id="eeIHZY7p8bbHrmFOEWPB-3" value=" - user: User" style="swimlane;fontStyle=0;childLayout=stackLayout;horizontal=1;startSize=26;fillColor=none;horizontalStack=0;resizeParent=1;resizeParentMax=0;resizeLast=0;collapsible=1;marginBottom=0;align=left;" parent="eeIHZY7p8bbHrmFOEWPB-1" vertex="1">
          <mxGeometry x="20" y="22" width="330" height="120" as="geometry">
            <mxRectangle y="22" width="100" height="26" as="alternateBounds" />
          </mxGeometry>
        </mxCell>
        <mxCell id="eeIHZY7p8bbHrmFOEWPB-4" value="+ UserController(User): UserController" style="text;strokeColor=none;fillColor=none;align=left;verticalAlign=top;spacingLeft=4;spacingRight=4;overflow=hidden;rotatable=0;points=[[0,0.5],[1,0.5]];portConstraint=eastwest;" parent="eeIHZY7p8bbHrmFOEWPB-3" vertex="1">
          <mxGeometry y="26" width="330" height="26" as="geometry" />
        </mxCell>
        <mxCell id="eeIHZY7p8bbHrmFOEWPB-5" value="+ UserID(User): String" style="text;strokeColor=none;fillColor=none;align=left;verticalAlign=top;spacingLeft=4;spacingRight=4;overflow=hidden;rotatable=0;points=[[0,0.5],[1,0.5]];portConstraint=eastwest;" parent="eeIHZY7p8bbHrmFOEWPB-3" vertex="1">
          <mxGeometry y="52" width="330" height="26" as="geometry" />
        </mxCell>
        <mxCell id="eeIHZY7p8bbHrmFOEWPB-6" value="+ UserKey(User): String&#xa;" style="text;strokeColor=none;fillColor=none;align=left;verticalAlign=top;spacingLeft=4;spacingRight=4;overflow=hidden;rotatable=0;points=[[0,0.5],[1,0.5]];portConstraint=eastwest;" parent="eeIHZY7p8bbHrmFOEWPB-3" vertex="1">
          <mxGeometry y="78" width="330" height="22" as="geometry" />
        </mxCell>
        <mxCell id="eeIHZY7p8bbHrmFOEWPB-19" value="+UserAuthenticate(UserPasscode, UserRegister): Boolean" style="text;html=1;align=center;verticalAlign=middle;resizable=0;points=[];autosize=1;" parent="eeIHZY7p8bbHrmFOEWPB-3" vertex="1">
          <mxGeometry y="100" width="330" height="20" as="geometry" />
        </mxCell>
        <mxCell id="eeIHZY7p8bbHrmFOEWPB-8" value=" - userRegister: UserRegister" style="swimlane;fontStyle=0;childLayout=stackLayout;horizontal=1;startSize=26;fillColor=none;horizontalStack=0;resizeParent=1;resizeParentMax=0;resizeLast=0;collapsible=1;marginBottom=0;align=left;" parent="eeIHZY7p8bbHrmFOEWPB-1" vertex="1">
          <mxGeometry y="192" width="310" height="90" as="geometry">
            <mxRectangle y="22" width="100" height="26" as="alternateBounds" />
          </mxGeometry>
        </mxCell>
        <mxCell id="eeIHZY7p8bbHrmFOEWPB-9" value="+ UserController(User): UserController" style="text;strokeColor=none;fillColor=none;align=left;verticalAlign=top;spacingLeft=4;spacingRight=4;overflow=hidden;rotatable=0;points=[[0,0.5],[1,0.5]];portConstraint=eastwest;" parent="eeIHZY7p8bbHrmFOEWPB-8" vertex="1">
          <mxGeometry y="26" width="310" height="26" as="geometry" />
        </mxCell>
        <mxCell id="eeIHZY7p8bbHrmFOEWPB-10" value="+ addUser(User, UserRegister, id): String&#xa;+UserAllowAccess(User,UserAuthenticate(user)): string" style="text;strokeColor=none;fillColor=none;align=left;verticalAlign=top;spacingLeft=4;spacingRight=4;overflow=hidden;rotatable=0;points=[[0,0.5],[1,0.5]];portConstraint=eastwest;" parent="eeIHZY7p8bbHrmFOEWPB-8" vertex="1">
          <mxGeometry y="52" width="310" height="38" as="geometry" />
        </mxCell>
        <mxCell id="91KgXIyakMXPJoI8tEhy-47" value="@Service TransactionServiceImplementation" style="swimlane;fontStyle=1;align=center;verticalAlign=top;childLayout=stackLayout;horizontal=1;startSize=26;horizontalStack=0;resizeParent=1;resizeParentMax=0;resizeLast=0;collapsible=1;marginBottom=0;" vertex="1" parent="1">
          <mxGeometry x="955" y="260" width="286" height="242" as="geometry">
            <mxRectangle x="357" y="610" width="290" height="26" as="alternateBounds" />
          </mxGeometry>
        </mxCell>
        <mxCell id="91KgXIyakMXPJoI8tEhy-48" value="-repo: TransactionRepo" style="text;strokeColor=none;fillColor=none;align=left;verticalAlign=top;spacingLeft=4;spacingRight=4;overflow=hidden;rotatable=0;points=[[0,0.5],[1,0.5]];portConstraint=eastwest;" vertex="1" parent="91KgXIyakMXPJoI8tEhy-47">
          <mxGeometry y="26" width="286" height="26" as="geometry" />
        </mxCell>
        <mxCell id="91KgXIyakMXPJoI8tEhy-49" value="" style="line;strokeWidth=1;fillColor=none;align=left;verticalAlign=middle;spacingTop=-1;spacingLeft=3;spacingRight=3;rotatable=0;labelPosition=right;points=[];portConstraint=eastwest;" vertex="1" parent="91KgXIyakMXPJoI8tEhy-47">
          <mxGeometry y="52" width="286" height="8" as="geometry" />
        </mxCell>
        <mxCell id="91KgXIyakMXPJoI8tEhy-50" value="+save(Transaction) : Transaction" style="text;strokeColor=none;fillColor=none;align=left;verticalAlign=top;spacingLeft=4;spacingRight=4;overflow=hidden;rotatable=0;points=[[0,0.5],[1,0.5]];portConstraint=eastwest;" vertex="1" parent="91KgXIyakMXPJoI8tEhy-47">
          <mxGeometry y="60" width="286" height="26" as="geometry" />
        </mxCell>
        <mxCell id="91KgXIyakMXPJoI8tEhy-51" value="+delete(Transaction) : void" style="text;strokeColor=none;fillColor=none;align=left;verticalAlign=top;spacingLeft=4;spacingRight=4;overflow=hidden;rotatable=0;points=[[0,0.5],[1,0.5]];portConstraint=eastwest;" vertex="1" parent="91KgXIyakMXPJoI8tEhy-47">
          <mxGeometry y="86" width="286" height="26" as="geometry" />
        </mxCell>
        <mxCell id="91KgXIyakMXPJoI8tEhy-52" value="+findAll() : List&lt;Transaction&gt;" style="text;strokeColor=none;fillColor=none;align=left;verticalAlign=top;spacingLeft=4;spacingRight=4;overflow=hidden;rotatable=0;points=[[0,0.5],[1,0.5]];portConstraint=eastwest;" vertex="1" parent="91KgXIyakMXPJoI8tEhy-47">
          <mxGeometry y="112" width="286" height="26" as="geometry" />
        </mxCell>
        <mxCell id="91KgXIyakMXPJoI8tEhy-53" value="+findByName(String) : List&lt;Transaction&gt;" style="text;strokeColor=none;fillColor=none;align=left;verticalAlign=top;spacingLeft=4;spacingRight=4;overflow=hidden;rotatable=0;points=[[0,0.5],[1,0.5]];portConstraint=eastwest;" vertex="1" parent="91KgXIyakMXPJoI8tEhy-47">
          <mxGeometry y="138" width="286" height="26" as="geometry" />
        </mxCell>
        <mxCell id="91KgXIyakMXPJoI8tEhy-54" value="+findById(Long) : Optional&lt;Transaction&gt;" style="text;strokeColor=none;fillColor=none;align=left;verticalAlign=top;spacingLeft=4;spacingRight=4;overflow=hidden;rotatable=0;points=[[0,0.5],[1,0.5]];portConstraint=eastwest;" vertex="1" parent="91KgXIyakMXPJoI8tEhy-47">
          <mxGeometry y="164" width="286" height="26" as="geometry" />
        </mxCell>
        <mxCell id="91KgXIyakMXPJoI8tEhy-55" value="+findBySavingTypeID(Long) : List&lt;Transaction&gt;" style="text;strokeColor=none;fillColor=none;align=left;verticalAlign=top;spacingLeft=4;spacingRight=4;overflow=hidden;rotatable=0;points=[[0,0.5],[1,0.5]];portConstraint=eastwest;" vertex="1" parent="91KgXIyakMXPJoI8tEhy-47">
          <mxGeometry y="190" width="286" height="26" as="geometry" />
        </mxCell>
        <mxCell id="91KgXIyakMXPJoI8tEhy-56" value="+findByDate(Date) : List&lt;Transaction&gt;" style="text;strokeColor=none;fillColor=none;align=left;verticalAlign=top;spacingLeft=4;spacingRight=4;overflow=hidden;rotatable=0;points=[[0,0.5],[1,0.5]];portConstraint=eastwest;" vertex="1" parent="91KgXIyakMXPJoI8tEhy-47">
          <mxGeometry y="216" width="286" height="26" as="geometry" />
        </mxCell>
        <mxCell id="91KgXIyakMXPJoI8tEhy-1" value=" @Controller HomeController" style="swimlane;fontStyle=1;align=center;verticalAlign=top;childLayout=stackLayout;horizontal=1;startSize=26;horizontalStack=0;resizeParent=1;resizeParentMax=0;resizeLast=0;collapsible=1;marginBottom=0;" vertex="1" parent="1">
          <mxGeometry x="25" y="920" width="405" height="138" as="geometry" />
        </mxCell>
        <mxCell id="91KgXIyakMXPJoI8tEhy-3" value="" style="line;strokeWidth=1;fillColor=none;align=left;verticalAlign=middle;spacingTop=-1;spacingLeft=3;spacingRight=3;rotatable=0;labelPosition=right;points=[];portConstraint=eastwest;" vertex="1" parent="91KgXIyakMXPJoI8tEhy-1">
          <mxGeometry y="26" width="405" height="8" as="geometry" />
        </mxCell>
        <mxCell id="91KgXIyakMXPJoI8tEhy-4" value="+ Home () : String" style="text;strokeColor=none;fillColor=none;align=left;verticalAlign=top;spacingLeft=4;spacingRight=4;overflow=hidden;rotatable=0;points=[[0,0.5],[1,0.5]];portConstraint=eastwest;" vertex="1" parent="91KgXIyakMXPJoI8tEhy-1">
          <mxGeometry y="34" width="405" height="26" as="geometry" />
        </mxCell>
        <mxCell id="91KgXIyakMXPJoI8tEhy-5" value="+ SavingType () : String" style="text;strokeColor=none;fillColor=none;align=left;verticalAlign=top;spacingLeft=4;spacingRight=4;overflow=hidden;rotatable=0;points=[[0,0.5],[1,0.5]];portConstraint=eastwest;" vertex="1" parent="91KgXIyakMXPJoI8tEhy-1">
          <mxGeometry y="60" width="405" height="26" as="geometry" />
        </mxCell>
        <mxCell id="91KgXIyakMXPJoI8tEhy-6" value="+ Transaction () : String" style="text;strokeColor=none;fillColor=none;align=left;verticalAlign=top;spacingLeft=4;spacingRight=4;overflow=hidden;rotatable=0;points=[[0,0.5],[1,0.5]];portConstraint=eastwest;" vertex="1" parent="91KgXIyakMXPJoI8tEhy-1">
          <mxGeometry y="86" width="405" height="26" as="geometry" />
        </mxCell>
        <mxCell id="91KgXIyakMXPJoI8tEhy-7" value="+ User () : String" style="text;strokeColor=none;fillColor=none;align=left;verticalAlign=top;spacingLeft=4;spacingRight=4;overflow=hidden;rotatable=0;points=[[0,0.5],[1,0.5]];portConstraint=eastwest;" vertex="1" parent="91KgXIyakMXPJoI8tEhy-1">
          <mxGeometry y="112" width="405" height="26" as="geometry" />
        </mxCell>
        <mxCell id="91KgXIyakMXPJoI8tEhy-10" value="@EntitySavingType" style="swimlane;fontStyle=1;align=center;verticalAlign=top;childLayout=stackLayout;horizontal=1;startSize=26;horizontalStack=0;resizeParent=1;resizeParentMax=0;resizeLast=0;collapsible=1;marginBottom=0;" vertex="1" parent="1">
          <mxGeometry x="50" y="20" width="210" height="138" as="geometry" />
        </mxCell>
        <mxCell id="91KgXIyakMXPJoI8tEhy-11" value="- id: Long&#xa;" style="text;strokeColor=none;fillColor=none;align=left;verticalAlign=top;spacingLeft=4;spacingRight=4;overflow=hidden;rotatable=0;points=[[0,0.5],[1,0.5]];portConstraint=eastwest;" vertex="1" parent="91KgXIyakMXPJoI8tEhy-10">
          <mxGeometry y="26" width="210" height="26" as="geometry" />
        </mxCell>
        <mxCell id="91KgXIyakMXPJoI8tEhy-12" value="- title: String&#xa;" style="text;strokeColor=none;fillColor=none;align=left;verticalAlign=top;spacingLeft=4;spacingRight=4;overflow=hidden;rotatable=0;points=[[0,0.5],[1,0.5]];portConstraint=eastwest;" vertex="1" parent="91KgXIyakMXPJoI8tEhy-10">
          <mxGeometry y="52" width="210" height="26" as="geometry" />
        </mxCell>
        <mxCell id="91KgXIyakMXPJoI8tEhy-13" value="" style="line;strokeWidth=1;fillColor=none;align=left;verticalAlign=middle;spacingTop=-1;spacingLeft=3;spacingRight=3;rotatable=0;labelPosition=right;points=[];portConstraint=eastwest;" vertex="1" parent="91KgXIyakMXPJoI8tEhy-10">
          <mxGeometry y="78" width="210" height="8" as="geometry" />
        </mxCell>
        <mxCell id="91KgXIyakMXPJoI8tEhy-14" value="+ SavingType(String): SavingType" style="text;strokeColor=none;fillColor=none;align=left;verticalAlign=top;spacingLeft=4;spacingRight=4;overflow=hidden;rotatable=0;points=[[0,0.5],[1,0.5]];portConstraint=eastwest;" vertex="1" parent="91KgXIyakMXPJoI8tEhy-10">
          <mxGeometry y="86" width="210" height="26" as="geometry" />
        </mxCell>
        <mxCell id="91KgXIyakMXPJoI8tEhy-15" value="[Getters &amp; Setters]" style="text;strokeColor=none;fillColor=none;align=left;verticalAlign=top;spacingLeft=4;spacingRight=4;overflow=hidden;rotatable=0;points=[[0,0.5],[1,0.5]];portConstraint=eastwest;" vertex="1" parent="91KgXIyakMXPJoI8tEhy-10">
          <mxGeometry y="112" width="210" height="26" as="geometry" />
        </mxCell>
        <mxCell id="iRIm101KUKBQ2ktEbunz-3" value=" - user: User" style="swimlane;fontStyle=0;childLayout=stackLayout;horizontal=1;startSize=26;fillColor=none;horizontalStack=0;resizeParent=1;resizeParentMax=0;resizeLast=0;collapsible=1;marginBottom=0;align=left;" parent="1" vertex="1">
          <mxGeometry x="830" y="525" width="330" height="120" as="geometry">
            <mxRectangle y="22" width="100" height="26" as="alternateBounds" />
          </mxGeometry>
        </mxCell>
        <mxCell id="iRIm101KUKBQ2ktEbunz-4" value="+ UserController(User): UserController" style="text;strokeColor=none;fillColor=none;align=left;verticalAlign=top;spacingLeft=4;spacingRight=4;overflow=hidden;rotatable=0;points=[[0,0.5],[1,0.5]];portConstraint=eastwest;" parent="iRIm101KUKBQ2ktEbunz-3" vertex="1">
          <mxGeometry y="26" width="330" height="26" as="geometry" />
        </mxCell>
        <mxCell id="iRIm101KUKBQ2ktEbunz-5" value="+ UserID(User): String" style="text;strokeColor=none;fillColor=none;align=left;verticalAlign=top;spacingLeft=4;spacingRight=4;overflow=hidden;rotatable=0;points=[[0,0.5],[1,0.5]];portConstraint=eastwest;" parent="iRIm101KUKBQ2ktEbunz-3" vertex="1">
          <mxGeometry y="52" width="330" height="26" as="geometry" />
        </mxCell>
        <mxCell id="iRIm101KUKBQ2ktEbunz-6" value="+ UserKey(User): String&#xa;" style="text;strokeColor=none;fillColor=none;align=left;verticalAlign=top;spacingLeft=4;spacingRight=4;overflow=hidden;rotatable=0;points=[[0,0.5],[1,0.5]];portConstraint=eastwest;" parent="iRIm101KUKBQ2ktEbunz-3" vertex="1">
          <mxGeometry y="78" width="330" height="22" as="geometry" />
        </mxCell>
        <mxCell id="iRIm101KUKBQ2ktEbunz-7" value="+UserAuthenticate(UserPasscode, UserRegister): Boolean" style="text;html=1;align=center;verticalAlign=middle;resizable=0;points=[];autosize=1;" parent="iRIm101KUKBQ2ktEbunz-3" vertex="1">
          <mxGeometry y="100" width="330" height="20" as="geometry" />
        </mxCell>
        <mxCell id="91KgXIyakMXPJoI8tEhy-20" value=" @Controller TransactionController" style="swimlane;fontStyle=1;align=center;verticalAlign=top;childLayout=stackLayout;horizontal=1;startSize=26;horizontalStack=0;resizeParent=1;resizeParentMax=0;resizeLast=0;collapsible=1;marginBottom=0;" vertex="1" parent="1">
          <mxGeometry x="1190" y="772" width="405" height="190" as="geometry" />
        </mxCell>
        <mxCell id="91KgXIyakMXPJoI8tEhy-21" value="- transactionService: TranactionService" style="text;strokeColor=none;fillColor=none;align=left;verticalAlign=top;spacingLeft=4;spacingRight=4;overflow=hidden;rotatable=0;points=[[0,0.5],[1,0.5]];portConstraint=eastwest;" vertex="1" parent="91KgXIyakMXPJoI8tEhy-20">
          <mxGeometry y="26" width="405" height="26" as="geometry" />
        </mxCell>
        <mxCell id="91KgXIyakMXPJoI8tEhy-22" value="" style="line;strokeWidth=1;fillColor=none;align=left;verticalAlign=middle;spacingTop=-1;spacingLeft=3;spacingRight=3;rotatable=0;labelPosition=right;points=[];portConstraint=eastwest;" vertex="1" parent="91KgXIyakMXPJoI8tEhy-20">
          <mxGeometry y="52" width="405" height="8" as="geometry" />
        </mxCell>
        <mxCell id="91KgXIyakMXPJoI8tEhy-23" value="+ TransactionController(TransactionService): TransactionController" style="text;strokeColor=none;fillColor=none;align=left;verticalAlign=top;spacingLeft=4;spacingRight=4;overflow=hidden;rotatable=0;points=[[0,0.5],[1,0.5]];portConstraint=eastwest;" vertex="1" parent="91KgXIyakMXPJoI8tEhy-20">
          <mxGeometry y="60" width="405" height="26" as="geometry" />
        </mxCell>
        <mxCell id="91KgXIyakMXPJoI8tEhy-24" value="+ TransactionType(Model): String" style="text;strokeColor=none;fillColor=none;align=left;verticalAlign=top;spacingLeft=4;spacingRight=4;overflow=hidden;rotatable=0;points=[[0,0.5],[1,0.5]];portConstraint=eastwest;" vertex="1" parent="91KgXIyakMXPJoI8tEhy-20">
          <mxGeometry y="86" width="405" height="26" as="geometry" />
        </mxCell>
        <mxCell id="91KgXIyakMXPJoI8tEhy-25" value="+ addTransaction(Transaction,BindingResult, Model): String" style="text;strokeColor=none;fillColor=none;align=left;verticalAlign=top;spacingLeft=4;spacingRight=4;overflow=hidden;rotatable=0;points=[[0,0.5],[1,0.5]];portConstraint=eastwest;" vertex="1" parent="91KgXIyakMXPJoI8tEhy-20">
          <mxGeometry y="112" width="405" height="26" as="geometry" />
        </mxCell>
        <mxCell id="91KgXIyakMXPJoI8tEhy-26" value="+ addTransactionForm(Transaction): String" style="text;strokeColor=none;fillColor=none;align=left;verticalAlign=top;spacingLeft=4;spacingRight=4;overflow=hidden;rotatable=0;points=[[0,0.5],[1,0.5]];portConstraint=eastwest;" vertex="1" parent="91KgXIyakMXPJoI8tEhy-20">
          <mxGeometry y="138" width="405" height="26" as="geometry" />
        </mxCell>
        <mxCell id="91KgXIyakMXPJoI8tEhy-27" value="+ deleteTransactionForm(long,Model): String" style="text;strokeColor=none;fillColor=none;align=left;verticalAlign=top;spacingLeft=4;spacingRight=4;overflow=hidden;rotatable=0;points=[[0,0.5],[1,0.5]];portConstraint=eastwest;" vertex="1" parent="91KgXIyakMXPJoI8tEhy-20">
          <mxGeometry y="164" width="405" height="26" as="geometry" />
        </mxCell>
        <mxCell id="91KgXIyakMXPJoI8tEhy-28" value="&lt;&lt;Interface&gt;&gt;TransactionService" style="swimlane;fontStyle=1;align=center;verticalAlign=top;childLayout=stackLayout;horizontal=1;startSize=26;horizontalStack=0;resizeParent=1;resizeParentMax=0;resizeLast=0;collapsible=1;marginBottom=0;" vertex="1" parent="1">
          <mxGeometry x="1290" y="506" width="286" height="216" as="geometry" />
        </mxCell>
        <mxCell id="91KgXIyakMXPJoI8tEhy-29" value="" style="line;strokeWidth=1;fillColor=none;align=left;verticalAlign=middle;spacingTop=-1;spacingLeft=3;spacingRight=3;rotatable=0;labelPosition=right;points=[];portConstraint=eastwest;" vertex="1" parent="91KgXIyakMXPJoI8tEhy-28">
          <mxGeometry y="26" width="286" height="8" as="geometry" />
        </mxCell>
        <mxCell id="91KgXIyakMXPJoI8tEhy-30" value="+save(Transaction) : Transaction" style="text;strokeColor=none;fillColor=none;align=left;verticalAlign=top;spacingLeft=4;spacingRight=4;overflow=hidden;rotatable=0;points=[[0,0.5],[1,0.5]];portConstraint=eastwest;" vertex="1" parent="91KgXIyakMXPJoI8tEhy-28">
          <mxGeometry y="34" width="286" height="26" as="geometry" />
        </mxCell>
        <mxCell id="91KgXIyakMXPJoI8tEhy-31" value="+delete(Transaction) : void" style="text;strokeColor=none;fillColor=none;align=left;verticalAlign=top;spacingLeft=4;spacingRight=4;overflow=hidden;rotatable=0;points=[[0,0.5],[1,0.5]];portConstraint=eastwest;" vertex="1" parent="91KgXIyakMXPJoI8tEhy-28">
          <mxGeometry y="60" width="286" height="26" as="geometry" />
        </mxCell>
        <mxCell id="91KgXIyakMXPJoI8tEhy-32" value="+findAll() : List&lt;Transaction&gt;" style="text;strokeColor=none;fillColor=none;align=left;verticalAlign=top;spacingLeft=4;spacingRight=4;overflow=hidden;rotatable=0;points=[[0,0.5],[1,0.5]];portConstraint=eastwest;" vertex="1" parent="91KgXIyakMXPJoI8tEhy-28">
          <mxGeometry y="86" width="286" height="26" as="geometry" />
        </mxCell>
        <mxCell id="91KgXIyakMXPJoI8tEhy-33" value="+findByName(String) : List&lt;Transaction&gt;" style="text;strokeColor=none;fillColor=none;align=left;verticalAlign=top;spacingLeft=4;spacingRight=4;overflow=hidden;rotatable=0;points=[[0,0.5],[1,0.5]];portConstraint=eastwest;" vertex="1" parent="91KgXIyakMXPJoI8tEhy-28">
          <mxGeometry y="112" width="286" height="26" as="geometry" />
        </mxCell>
        <mxCell id="91KgXIyakMXPJoI8tEhy-34" value="+findById(Long) : Optional&lt;Transaction&gt;" style="text;strokeColor=none;fillColor=none;align=left;verticalAlign=top;spacingLeft=4;spacingRight=4;overflow=hidden;rotatable=0;points=[[0,0.5],[1,0.5]];portConstraint=eastwest;" vertex="1" parent="91KgXIyakMXPJoI8tEhy-28">
          <mxGeometry y="138" width="286" height="26" as="geometry" />
        </mxCell>
        <mxCell id="91KgXIyakMXPJoI8tEhy-35" value="+findBySavingTypeID(Long) : List&lt;Transaction&gt;" style="text;strokeColor=none;fillColor=none;align=left;verticalAlign=top;spacingLeft=4;spacingRight=4;overflow=hidden;rotatable=0;points=[[0,0.5],[1,0.5]];portConstraint=eastwest;" vertex="1" parent="91KgXIyakMXPJoI8tEhy-28">
          <mxGeometry y="164" width="286" height="26" as="geometry" />
        </mxCell>
        <mxCell id="91KgXIyakMXPJoI8tEhy-36" value="+findByDate(Date) : List&lt;Transaction&gt;" style="text;strokeColor=none;fillColor=none;align=left;verticalAlign=top;spacingLeft=4;spacingRight=4;overflow=hidden;rotatable=0;points=[[0,0.5],[1,0.5]];portConstraint=eastwest;" vertex="1" parent="91KgXIyakMXPJoI8tEhy-28">
          <mxGeometry y="190" width="286" height="26" as="geometry" />
        </mxCell>
        <mxCell id="91KgXIyakMXPJoI8tEhy-38" value="" style="edgeStyle=orthogonalEdgeStyle;rounded=0;orthogonalLoop=1;jettySize=auto;html=1;entryX=-0.026;entryY=0.269;entryDx=0;entryDy=0;entryPerimeter=0;exitX=0.123;exitY=-0.011;exitDx=0;exitDy=0;exitPerimeter=0;" edge="1" parent="1" source="91KgXIyakMXPJoI8tEhy-20" target="91KgXIyakMXPJoI8tEhy-36">
          <mxGeometry relative="1" as="geometry">
            <mxPoint x="1220" y="710" as="sourcePoint" />
            <mxPoint x="1190" y="760" as="targetPoint" />
          </mxGeometry>
        </mxCell>
        <mxCell id="91KgXIyakMXPJoI8tEhy-57" style="edgeStyle=orthogonalEdgeStyle;rounded=0;orthogonalLoop=1;jettySize=auto;html=1;endArrow=classic;endFill=0;" edge="1" parent="1" target="91KgXIyakMXPJoI8tEhy-28">
          <mxGeometry relative="1" as="geometry">
            <Array as="points">
              <mxPoint x="1285" y="462" />
              <mxPoint x="1285" y="468" />
              <mxPoint x="1330" y="468" />
            </Array>
            <mxPoint x="1241" y="461.65" as="sourcePoint" />
            <mxPoint x="1329.858" y="461.682" as="targetPoint" />
          </mxGeometry>
        </mxCell>
        <mxCell id="91KgXIyakMXPJoI8tEhy-67" style="edgeStyle=orthogonalEdgeStyle;rounded=0;orthogonalLoop=1;jettySize=auto;html=1;entryX=0;entryY=0.5;entryDx=0;entryDy=0;" edge="1" parent="1">
          <mxGeometry relative="1" as="geometry">
            <mxPoint x="1240" y="285" as="sourcePoint" />
            <mxPoint x="1471" y="236" as="targetPoint" />
          </mxGeometry>
        </mxCell>
      </root>
    </mxGraphModel>
  </diagram>
</mxfile>
